<?xml version="1.0" standalone="no"?><!DOCTYPE svg PUBLIC "-//W3C//DTD SVG 1.1//EN" "http://www.w3.org/Graphics/SVG/1.1/DTD/svg11.dtd"><svg t="1600010054934" class="icon" viewBox="0 0 1024 1024" version="1.1" xmlns="http://www.w3.org/2000/svg" p-id="2015" xmlns:xlink="http://www.w3.org/1999/xlink" width="200" height="200"><defs><style type="text/css"></style></defs><path d="M527.26 67.98a32 32 0 0 1 13.632 13.632L958.69 885.239c8.152 15.68 2.049 35.001-13.632 43.153a32 32 0 0 1-14.76 3.608H94.702c-17.673 0-32-14.327-32-32a32 32 0 0 1 3.607-14.76L484.108 81.611c8.152-15.68 27.472-21.784 43.153-13.631zM512 704c-35.346 0-64 28.654-64 64 0 35.346 28.654 64 64 64 35.346 0 64-28.654 64-64 0-35.346-28.654-64-64-64z m64-352H448l21.333 288h85.334L576 352z" fill="#FF891A" p-id="2016"></path></svg>