<?xml version="1.0" standalone="no"?><!DOCTYPE svg PUBLIC "-//W3C//DTD SVG 1.1//EN" "http://www.w3.org/Graphics/SVG/1.1/DTD/svg11.dtd"><svg t="1600010748737" class="icon" viewBox="0 0 1024 1024" version="1.1" xmlns="http://www.w3.org/2000/svg" p-id="8919" xmlns:xlink="http://www.w3.org/1999/xlink" width="200" height="200"><defs><style type="text/css"></style></defs><path d="M512 512m-512 0a512 512 0 1 0 1024 0 512 512 0 1 0-1024 0Z" fill="#999999" p-id="8920"></path><path d="M546.133333 678.4v140.8c0 17.066667-12.8 34.133333-34.133333 34.133333s-34.133333-12.8-34.133333-34.133333v-140.8C401.066667 665.6 341.333333 597.333333 341.333333 512s59.733333-153.6 136.533334-166.4V204.8c0-21.333333 17.066667-34.133333 34.133333-34.133333s34.133333 12.8 34.133333 34.133333v140.8C622.933333 358.4 682.666667 426.666667 682.666667 512s-59.733333 153.6-136.533334 166.4zM512 405.333333c-59.733333 0-106.666667 46.933333-106.666667 106.666667s46.933333 106.666667 106.666667 106.666667 106.666667-46.933333 106.666667-106.666667-46.933333-106.666667-106.666667-106.666667z" fill="#FFFFFF" p-id="8921"></path></svg>