<?xml version="1.0" standalone="no"?><!DOCTYPE svg PUBLIC "-//W3C//DTD SVG 1.1//EN" "http://www.w3.org/Graphics/SVG/1.1/DTD/svg11.dtd"><svg t="1600010058743" class="icon" viewBox="0 0 1097 1024" version="1.1" xmlns="http://www.w3.org/2000/svg" p-id="2155" xmlns:xlink="http://www.w3.org/1999/xlink" width="214.2578125" height="200"><defs><style type="text/css"></style></defs><path d="M687.47047 515.074049c12.97932-6.831221 23.226151-28.691127 0-38.937958l-23.226151-9.563709a260.952635 260.952635 0 0 0 90.172115-197.422282 269.1501 269.1501 0 0 0-538.300201 0A260.952635 260.952635 0 0 0 307.654592 466.572382 485.016678 485.016678 0 0 0 0.249656 853.21948a19.127418 19.127418 0 0 0 0 6.148098 59.431621 59.431621 0 0 0 18.444296 43.036692 58.748499 58.748499 0 0 0 43.036691 17.761174h510.292195a295.108739 295.108739 0 0 1-36.888593-143.455637 300.573716 300.573716 0 0 1 152.336225-261.635758z" fill="#FFAA00" p-id="2156"></path><path d="M841.85606 1024A251.388926 251.388926 0 1 1 1093.244986 772.611074a252.072048 252.072048 0 0 1-251.388926 251.388926z m77.192795-409.873249a39.621081 39.621081 0 0 0-39.621081 39.621081V892.157438a39.621081 39.621081 0 0 0 39.621081 39.621081h8.197465a39.621081 39.621081 0 0 0 39.621081-39.621081V653.06471a39.621081 39.621081 0 0 0-39.621081-39.621081z m-163.266177 0a39.621081 39.621081 0 0 0-39.621081 39.621081V892.157438a39.621081 39.621081 0 0 0 39.621081 39.621081h8.197465a39.621081 39.621081 0 0 0 39.62108-39.621081V653.06471a39.621081 39.621081 0 0 0-39.62108-39.621081z" fill="#FFAA00" p-id="2157"></path></svg>