<?xml version="1.0" standalone="no"?><!DOCTYPE svg PUBLIC "-//W3C//DTD SVG 1.1//EN" "http://www.w3.org/Graphics/SVG/1.1/DTD/svg11.dtd"><svg t="1600010043017" class="icon" viewBox="0 0 1024 1024" version="1.1" xmlns="http://www.w3.org/2000/svg" p-id="1586" xmlns:xlink="http://www.w3.org/1999/xlink" width="200" height="200"><defs><style type="text/css"></style></defs><path d="M512 914.285714c222.171429 0 402.285714-180.114286 402.285714-402.285714S734.171429 109.714286 512 109.714286 109.714286 289.828571 109.714286 512s180.114286 402.285714 402.285714 402.285714z m0 73.142857C249.417143 987.428571 36.571429 774.582857 36.571429 512S249.417143 36.571429 512 36.571429s475.428571 212.845714 475.428571 475.428571-212.845714 475.428571-475.428571 475.428571z" fill="#FF7875" p-id="1587"></path><path d="M667.159431 305.120759m25.859905 25.859905l0 0q25.859905 25.859905 0 51.71981l-310.318862 310.318862q-25.859905 25.859905-51.71981 0l0 0q-25.859905-25.859905 0-51.71981l310.318862-310.318862q25.859905-25.859905 51.71981 0Z" fill="#FF7875" p-id="1588"></path><path d="M305.120759 356.840569m25.859905-25.859905l0 0q25.859905-25.859905 51.71981 0l310.318862 310.318862q25.859905 25.859905 0 51.71981l0 0q-25.859905 25.859905-51.71981 0l-310.318862-310.318862q-25.859905-25.859905 0-51.71981Z" fill="#FF7875" p-id="1589"></path></svg>