<?xml version="1.0" standalone="no"?><!DOCTYPE svg PUBLIC "-//W3C//DTD SVG 1.1//EN" "http://www.w3.org/Graphics/SVG/1.1/DTD/svg11.dtd"><svg t="1600010039184" class="icon" viewBox="0 0 1024 1024" version="1.1" xmlns="http://www.w3.org/2000/svg" p-id="1446" xmlns:xlink="http://www.w3.org/1999/xlink" width="200" height="200"><defs><style type="text/css"></style></defs><path d="M512 1.024C229.888 1.536 1.024 229.888 1.024 512c0 282.112 228.864 510.464 510.464 510.464 282.112 0 510.464-228.352 510.976-510.464C1022.976 230.4 794.112 1.536 512 1.024z m292.864 378.368l-330.752 330.24c-17.92 18.432-47.104 18.944-65.536 1.024l-1.024-1.024-189.952-189.952c-18.432-18.432-18.432-48.128 0-66.56 18.432-18.432 48.128-18.432 66.56 0l157.696 157.696 297.472-296.448c18.432-18.432 48.128-18.432 66.56-0.512 18.432 18.432 18.944 48.128 0.512 66.56l-0.512 0.512-1.024-1.536z" fill="#00CC66" p-id="1447"></path></svg>