<?xml version="1.0" standalone="no"?><!DOCTYPE svg PUBLIC "-//W3C//DTD SVG 1.1//EN" "http://www.w3.org/Graphics/SVG/1.1/DTD/svg11.dtd"><svg t="1600010026909" class="icon" viewBox="0 0 1024 1024" version="1.1" xmlns="http://www.w3.org/2000/svg" p-id="1166" xmlns:xlink="http://www.w3.org/1999/xlink" width="200" height="200"><defs><style type="text/css"></style></defs><path d="M512.146286 0a512 512 0 1 0-0.219429 1024.073143A512 512 0 0 0 512.146286 0zM233.252571 577.828571a63.414857 63.414857 0 0 1 0-126.829714 63.414857 63.414857 0 0 1 0 126.756572z m227.84 0a63.414857 63.414857 0 0 1 0-126.829714 63.414857 63.414857 0 0 1 0 126.756572z m376.393143-29.037714L610.962286 778.24a50.688 50.688 0 1 1-71.899429-71.387429l191.195429-193.462857-191.049143-191.122285a50.541714 50.541714 0 1 1 71.387428-71.68l226.596572 226.962285a50.468571 50.468571 0 0 1 0.292571 71.314286z" fill="#03CC66" p-id="1167"></path></svg>